<svg xmlns="http://www.w3.org/2000/svg" viewBox="0 0 512 512" role="img" aria-labelledby="title desc">
  <title id="title">National Debt logo</title>
  <desc id="desc">Dark rounded app icon with a light ledger card, ND monogram, and teal finance accent.</desc>
  <defs>
    <linearGradient id="bg" x1="72" x2="440" y1="56" y2="464" gradientUnits="userSpaceOnUse">
      <stop stop-color="#15202b"/>
      <stop offset="1" stop-color="#0f766e"/>
    </linearGradient>
    <linearGradient id="card" x1="122" x2="390" y1="132" y2="388" gradientUnits="userSpaceOnUse">
      <stop stop-color="#ffffff"/>
      <stop offset="1" stop-color="#eef4f8"/>
    </linearGradient>
    <filter id="shadow" x="64" y="76" width="384" height="372" color-interpolation-filters="sRGB" filterUnits="userSpaceOnUse">
      <feDropShadow dx="0" dy="18" stdDeviation="18" flood-color="#08111a" flood-opacity=".28"/>
    </filter>
  </defs>
  <rect width="512" height="512" rx="112" fill="url(#bg)"/>
  <circle cx="381" cy="140" r="57" fill="#84f3d7" opacity=".9"/>
  <circle cx="381" cy="140" r="31" fill="#15202b" opacity=".18"/>
  <path d="M112 153c0-28.2 22.8-51 51-51h186c28.2 0 51 22.8 51 51v206c0 28.2-22.8 51-51 51H163c-28.2 0-51-22.8-51-51V153Z" fill="url(#card)" filter="url(#shadow)"/>
  <path d="M112 153c0-28.2 22.8-51 51-51h186c28.2 0 51 22.8 51 51v35H112v-35Z" fill="#0f766e"/>
  <path d="M156 334V183l82 151V183" fill="none" stroke="#15202b" stroke-linecap="round" stroke-linejoin="round" stroke-width="34"/>
  <path d="M292 183v151m0-151h24c57 0 93 31 93 75s-36 76-93 76h-24" fill="none" stroke="#c05621" stroke-linecap="round" stroke-linejoin="round" stroke-width="34"/>
  <path d="M159 371h192" fill="none" stroke="#d8e3ec" stroke-linecap="round" stroke-width="16"/>
  <path d="M159 371h88" fill="none" stroke="#0f766e" stroke-linecap="round" stroke-width="16"/>
</svg>
