<svg xmlns="http://www.w3.org/2000/svg" viewBox="0 0 512 512">
  <path fill="#000" d="M112 0h288c61.9 0 112 50.1 112 112v288c0 61.9-50.1 112-112 112H112C50.1 512 0 461.9 0 400V112C0 50.1 50.1 0 112 0Zm50 103c-27.6 0-50 22.4-50 50v206c0 27.6 22.4 50 50 50h187c27.6 0 50-22.4 50-50V153c0-27.6-22.4-50-50-50H162Zm-6 231V183c0-9.4 7.6-17 17-17 6.2 0 12 3.4 15 8.9l49 90.1v-82c0-9.4 7.6-17 17-17s17 7.6 17 17v151c0 7.8-5.3 14.7-12.9 16.5-7.6 1.8-15.4-1.7-19.1-8.5l-49-90.1V334c0 9.4-7.6 17-17 17s-17-7.6-17-17Zm119 0V183c0-9.4 7.6-17 17-17h24c31.6 0 58.9 8.7 78.5 25.4 20.5 17.4 31.5 40.8 31.5 66.6 0 25.9-11 49.5-31.4 67.1-19.7 16.9-47 25.9-78.6 25.9h-24c-9.4 0-17-7.6-17-17Zm34-17h7c24.1 0 43.4-6.6 56.5-17.9 12.4-10.7 19.5-24.9 19.5-41.1 0-16.1-7.1-30.1-19.5-40.6-13.1-11.1-32.4-17.4-56.5-17.4h-7v117Z"/>
</svg>
